<svg width="61" height="61" viewBox="0 0 61 61" fill="none" xmlns="http://www.w3.org/2000/svg">
<circle cx="30.1863" cy="30.541" r="30" fill="black"/>
<g clip-path="url(#clip0_0_58)">
<path d="M34.472 21.9697H25.9006C23.5336 21.9697 21.6149 23.8885 21.6149 26.2554V34.8269C21.6149 37.1938 23.5336 39.1126 25.9006 39.1126H34.472C36.8389 39.1126 38.7577 37.1938 38.7577 34.8269V26.2554C38.7577 23.8885 36.8389 21.9697 34.472 21.9697Z" stroke="white" stroke-width="2" stroke-linecap="round" stroke-linejoin="round"/>
<path d="M33.6149 30.0011C33.7206 30.7145 33.5988 31.443 33.2667 32.0831C32.9345 32.7232 32.409 33.2423 31.7648 33.5665C31.1207 33.8908 30.3907 34.0036 29.6787 33.889C28.9667 33.7745 28.3089 33.4383 27.799 32.9284C27.2891 32.4184 26.9529 31.7607 26.8383 31.0487C26.7238 30.3367 26.8366 29.6067 27.1609 28.9626C27.4851 28.3184 28.0042 27.7929 28.6443 27.4607C29.2844 27.1286 30.0129 27.0067 30.7263 27.1125C31.4539 27.2204 32.1276 27.5595 32.6477 28.0796C33.1679 28.5998 33.507 29.2735 33.6149 30.0011Z" stroke="white" stroke-width="2" stroke-linecap="round" stroke-linejoin="round"/>
<path d="M34.9006 25.8269H34.9091" stroke="white" stroke-width="2" stroke-linecap="round" stroke-linejoin="round"/>
</g>
<defs>
<clipPath id="clip0_0_58">
<rect width="20.5714" height="20.5714" fill="white" transform="translate(19.9006 20.2554)"/>
</clipPath>
</defs>
</svg>
